<?xml version="1.0" encoding="UTF-8"?><svg xmlns="http://www.w3.org/2000/svg" xmlns:xlink="http://www.w3.org/1999/xlink" height="234.2" preserveAspectRatio="xMidYMid meet" version="1.1" viewBox="94.5 95.5 236.1 234.2" width="236.1" zoomAndPan="magnify">
 <g id="surface1">
  <g id="change1_1"><path d="m180.85 221.99c-11.62 0-21.07-9.44-21.07-21.06 0-11.61 9.45-21.06 21.07-21.06h81.22c11.61 0 21.06 9.45 21.06 21.06 0 11.62-9.45 21.06-21.06 21.06h-81.22" fill="#fbd3e2"/></g>
  <g id="change2_1"><path d="m262.07 177.87h-81.22c-12.72 0-23.07 10.34-23.07 23.06s10.35 23.06 23.07 23.06h81.22c12.72 0 23.06-10.34 23.06-23.06s-10.34-23.06-23.06-23.06m0 4c10.53 0 19.06 8.53 19.06 19.06s-8.53 19.06-19.06 19.06h-81.22c-10.53 0-19.07-8.53-19.07-19.06s8.54-19.06 19.07-19.06h81.22" fill="#ed6bae"/></g>
  <g id="change3_1"><path d="m275.1 214.84c-0.92-0.09-1.86-0.14-2.81-0.14h-3.82c5.95-3.22 9.99-9.52 9.99-16.77 0-4.13-1.32-7.94-3.55-11.06 3.77 3.45 6.18 8.39 6.22 13.9v0.03 0.03 0.01 0.02 0.01 0.02 0.01 0.03c0 5.49-2.32 10.43-6.03 13.91m-107.27 0c-0.92-0.86-1.75-1.82-2.49-2.85 1.17 1.07 2.46 1.99 3.87 2.75-0.46 0.02-0.92 0.06-1.38 0.1" fill="#f3c0d5"/></g>
  <g id="change4_1"><path d="m275.1 214.84c3.71-3.48 6.03-8.42 6.03-13.91 0 5.49-2.32 10.43-6.03 13.91m6.03-13.94v-0.01 0.01m0-0.03v-0.01 0.01m0-0.03v-0.01 0.01m0-0.04m0-0.03" fill="#e662a6"/></g>
  <g id="change1_2"><path d="m170.62 268.43c-14.26 0-25.86-11.61-25.86-25.87s11.6-25.86 25.86-25.86h101.67c14.26 0 25.87 11.6 25.87 25.86s-11.61 25.87-25.87 25.87h-101.67" fill="#fbd3e2"/></g>
  <g id="change2_2"><path d="m272.29 214.7h-101.67c-15.36 0-27.86 12.5-27.86 27.86 0 15.37 12.5 27.87 27.86 27.87h101.67c15.37 0 27.87-12.5 27.87-27.87 0-15.36-12.5-27.86-27.87-27.86m0 4c13.18 0 23.87 10.69 23.87 23.86 0 13.18-10.69 23.87-23.87 23.87h-101.67c-13.18 0-23.86-10.69-23.86-23.87 0-13.17 10.68-23.86 23.86-23.86h101.67" fill="#ed6bae"/></g>
  <g id="change3_2"><path d="m157.41 262.44c-2.28-1.52-4.29-3.42-5.92-5.62 2.69 2.57 5.96 4.51 9.61 5.61h-2.76c-0.32 0-0.62 0-0.93 0.01m128.09 0c-0.3-0.01-0.61-0.01-0.92-0.01h-8.1c9.84-2.95 17.01-12.07 17.01-22.87 0-5.34-1.76-10.28-4.73-14.26 4.43 4.23 7.24 10.14 7.39 16.71v0.04 0.04 0.03 0.01 0.03 0.01 0.03 0.01 0.03 0.01 0.03 0.01 0.03 0.01 0.02 0.02 0.02 0.02 0.02 0.02s0.01 0.01 0.01 0.02v0.01 0.03 0.01 0.04c0 8.3-4.23 15.6-10.66 19.88" fill="#f3c0d5"/></g>
  <g id="change4_2"><path d="m285.5 262.44c6.43-4.28 10.66-11.58 10.66-19.88 0 8.3-4.23 15.6-10.66 19.88m10.66-19.92v-0.01 0.01m0-0.04v-0.01 0.01m-0.01-0.03v-0.02 0.02m0-0.04v-0.02 0.02m0-0.04v-0.02 0.02m0-0.04v-0.01 0.01m0-0.04v-0.01 0.01m0-0.04v-0.01 0.01m0-0.04v-0.01 0.01m0-0.04v-0.01 0.01m0-0.04v-0.01 0.01m0-0.04m0-0.04m0-0.04" fill="#e662a6"/></g>
  <g id="change1_3"><path d="m249.57 206.63c-8.12 0-22.57-6.11-31.72-15.99-2.12-2.27-3.96-4.6-5.5-6.96-1.54 2.35-3.38 4.68-5.49 6.96-9.16 9.88-23.6 15.99-31.73 15.99-2.29 0-4.01-0.51-5.11-1.53-3.69-3.42-1.16-13.3-0.3-16.25 2.37-8.06 6.73-15.92 11.96-21.56 0.48-0.52 0.96-1.03 1.46-1.52-0.65-0.26-1.3-0.52-1.95-0.8-7.08-3.03-14.25-8.45-19.69-14.85-1.98-2.35-8.3-10.35-6.32-14.98 1.85-4.31 11.05-5.84 18.38-5.84 7.48 0 14.99 1.46 21.15 4.1 0.2 0.08 0.39 0.17 0.58 0.25v-0.49c0-16.86 10.24-35.644 17.17-35.644 6.94 0 17.18 18.784 17.18 35.644v0.39c0.12-0.05 0.24-0.1 0.35-0.15 6.17-2.64 13.67-4.1 21.15-4.1 7.33 0 16.54 1.53 18.38 5.84 2.73 6.38-10.5 23.18-26 29.83-0.65 0.28-1.3 0.54-1.96 0.8 0.49 0.49 0.98 1 1.46 1.52 5.24 5.64 9.59 13.5 11.96 21.56 0.86 2.95 3.4 12.83-0.3 16.25-1.1 1.02-2.82 1.53-5.11 1.53" fill="#fbd3e2"/></g>
  <g id="change2_3"><path d="m212.46 95.516c-8.36 0-18.19 18.524-19.1 35.194-5.97-2.21-12.9-3.41-19.8-3.41-4.03 0-17.42 0.51-20.22 7.06-2.29 5.33 3.18 12.97 6.64 17.05 5.45 6.43 12.59 11.89 19.71 15.09-5.21 5.81-9.51 13.71-11.89 21.79-1.5 5.13-3.39 14.33 0.86 18.28 1.48 1.37 3.66 2.06 6.47 2.06 8.55 0 23.67-6.36 33.19-16.63 1.48-1.59 2.82-3.2 4.03-4.83 1.21 1.63 2.56 3.25 4.03 4.83 9.52 10.27 24.64 16.63 33.19 16.63 2.82 0 4.99-0.69 6.47-2.06 4.25-3.95 2.36-13.15 0.86-18.28-2.37-8.08-6.69-15.98-11.89-21.79 15.58-7.01 29.76-24.2 26.35-32.15-2.8-6.54-16.18-7.05-20.22-7.05-6.81 0-13.66 1.17-19.57 3.32-0.94-16.64-10.75-35.104-19.11-35.104m-0.11 64.194l0.11-0.12-0.22-0.01v0.01l0.11 0.12m0.11-60.194c5.06 0 15.18 17.064 15.18 33.644 0 1.25-0.04 2.45-0.12 3.61 1.04-0.53 2.12-1.04 3.26-1.54 6.56-2.8 13.93-3.93 20.36-3.93 8.53 0 15.41 1.98 16.54 4.63 2 4.65-9.7 20.67-24.95 27.2-1.69 0.73-3.34 1.32-4.94 1.84 1.26 1.11 2.51 2.33 3.77 3.67 11.28 12.17 15.47 31.56 11.76 35-0.73 0.67-2.03 0.99-3.75 0.99-7.09 0-21.18-5.56-30.26-15.35-2.99-3.22-5.28-6.41-6.96-9.48-1.67 3.07-3.97 6.26-6.96 9.48-9.08 9.79-23.18 15.35-30.26 15.35-1.72 0-3.02-0.32-3.74-0.99-3.71-3.44 0.47-22.83 11.75-35 1.26-1.34 2.51-2.56 3.77-3.68-1.6-0.51-3.25-1.1-4.94-1.83-15.25-6.53-26.94-22.55-24.95-27.2 1.13-2.65 8.01-4.63 16.54-4.63 6.43 0 13.81 1.13 20.37 3.93 1.22 0.54 2.37 1.09 3.48 1.66-0.07-1.2-0.12-2.44-0.12-3.73 0-16.58 10.12-33.644 15.17-33.644" fill="#ed6bae"/></g>
  <g id="change5_1"><path d="m167.17 153.18c-7.04-6.66-11.26-14.04-10.21-17.09v-0.03h0.01v-0.01-0.01h0.01v-0.01-0.01-0.01c0.01 0 0.01-0.01 0.01-0.01v-0.01l0.01-0.01v-0.01c0-0.01 0-0.01 0.01-0.01v-0.01-0.01c0.01 0 0.01-0.01 0.01-0.01 0.12-0.27 0.3-0.54 0.53-0.8 0 0 0-0.01 0.01-0.01 0.66-0.72 1.78-1.38 3.24-1.94 3.05-1.16 7.6-1.88 12.76-1.88 1.02 0 2.06 0.03 3.12 0.09 3.49 0.19 7.17 0.72 10.78 1.65 2.2 0.57 4.37 1.3 6.47 2.19 1.22 0.54 2.37 1.09 3.48 1.66-0.07-1.2-0.12-2.44-0.12-3.73 0-16.58 10.12-33.644 15.17-33.644h0.01 0.01 0.01 0.01 0.01c1.38 0.023 3.13 1.314 4.95 3.504-0.97-0.76-1.88-1.17-2.66-1.17-5.06 0-15.18 17.06-15.18 33.65 0 1.28 0.05 2.52 0.13 3.73-1.11-0.58-2.26-1.13-3.49-1.66-6.56-2.81-13.93-3.93-20.37-3.93-8.53 0-15.41 1.97-16.54 4.62-1.12 2.62 2.09 8.82 7.82 14.92" fill="#fefafc"/></g>
  <g id="change6_1"><path d="m197.41 136.89c-0.07-1.2-0.12-2.44-0.12-3.73 0 1.29 0.05 2.53 0.12 3.73m-40.45-0.8m0-0.03h0.01-0.01m0.01-0.01v-0.01 0.01m0.01-0.01v-0.01 0.01m0-0.02m0-0.01c0.01 0 0.01-0.01 0.01-0.01s0 0.01-0.01 0.01m0.01-0.01v-0.01 0.01m0.01-0.02v-0.01 0.01m0-0.01c0-0.01 0-0.01 0.01-0.01-0.01 0-0.01 0-0.01 0.01m0.01-0.01v-0.01 0.01m0-0.02c0.01 0 0.01-0.01 0.01-0.01s0 0.01-0.01 0.01m0.54-0.81m0.01-0.01c0.66-0.72 1.78-1.38 3.24-1.94-1.46 0.56-2.58 1.22-3.24 1.94m29.9-2.08c-3.61-0.93-7.29-1.46-10.78-1.65 3.49 0.19 7.17 0.72 10.78 1.65m25.05-33.524m-0.01 0m-0.01 0m-0.01 0h-0.01 0.01" fill="#fceff6"/></g>
  <g id="change5_2"><path d="m241.4 168.48c-0.43-0.4-0.85-0.8-1.27-1.18l0.08-0.03c0.4 0.39 0.79 0.79 1.19 1.21" fill="#fefafc"/></g>
  <g id="change5_3"><path d="m214.68 162.05l-0.11-0.12v-0.02l0.23 0.02-0.12 0.12" fill="#fefafc"/></g>
  <g id="change5_4"><path d="m221.6 191.57c-0.79-0.73-1.55-1.5-2.29-2.29-0.17-0.18-0.34-0.37-0.51-0.55-1.77-1.96-3.28-3.91-4.55-5.82 0.14-0.26 0.29-0.52 0.43-0.77 1.67 3.05 3.96 6.22 6.92 9.43" fill="#fefafc"/></g>
  <g id="change6_2"><path d="m219.31 189.28c-0.17-0.18-0.34-0.37-0.51-0.55 0.17 0.18 0.34 0.37 0.51 0.55" fill="#fceff6"/></g>
  <g id="change1_4"><path d="m212.46 166.38c-5.33 0-9.67-4.34-9.67-9.68 0-5.33 4.34-9.67 9.67-9.67 5.34 0 9.68 4.34 9.68 9.67 0 5.34-4.34 9.68-9.68 9.68" fill="#fbd3e2"/></g>
  <g id="change2_4"><path d="m212.46 145.03c-6.43 0-11.67 5.24-11.67 11.67 0 6.44 5.24 11.68 11.67 11.68 6.44 0 11.68-5.24 11.68-11.68 0-6.43-5.24-11.67-11.68-11.67zm0 4c4.24 0 7.68 3.43 7.68 7.67s-3.44 7.68-7.68 7.68c-4.23 0-7.67-3.44-7.67-7.68s3.44-7.67 7.67-7.67" fill="#ed6bae"/></g>
  <g id="change1_5"><path d="m158.34 327.68c-17.45 0-31.64-14.18-31.64-31.63 0-17.44 14.19-31.62 31.64-31.62h126.24c17.44 0 31.63 14.18 31.63 31.62 0 17.45-14.19 31.63-31.63 31.63h-126.24" fill="#fbd3e2"/></g>
  <g id="change2_5"><path d="m284.58 262.43h-126.24c-18.55 0-33.64 15.08-33.64 33.62 0 18.55 15.09 33.64 33.64 33.64h126.24c18.54 0 33.63-15.09 33.63-33.64 0-18.54-15.09-33.62-33.63-33.62m0 4c16.37 0 29.63 13.26 29.63 29.62 0 16.37-13.26 29.64-29.63 29.64h-126.24c-16.37 0-29.64-13.27-29.64-29.64 0-16.36 13.27-29.62 29.64-29.62h126.24" fill="#ed6bae"/></g>
  <g id="change3_3"><path d="m284.58 325.69h-126.24c-0.02 0-0.04 0-0.05-0.01h-0.05-0.01-0.04-0.04-0.01-0.04-0.01-0.04-0.01-0.03-0.02-0.03-0.01-0.04-0.02-0.02-0.03-0.02-0.03-0.02-0.07-0.01c-9.26-0.2-17.48-4.65-22.77-11.48 5.34 5.25 12.67 8.49 20.74 8.49h126.25c16.37 0 29.63-13.27 29.63-29.64 0-6.83-2.32-13.12-6.21-18.14 5.36 5.27 8.73 12.54 8.87 20.61 0 0.02 0 0.03 0.01 0.05v0.04 0.01 0.04 0.01 0.04 0.04 0.02 0.03 0.01 0.04 0.01 0.03 0.02 0.03 0.02 0.03 0.02 0.04c0 16.37-13.26 29.64-29.63 29.64" fill="#f3c0d5"/></g>
  <g id="change4_3"><path d="m284.58 325.69h-126.24c-0.02 0-0.04 0-0.05-0.01 0.01 0.01 0.03 0.01 0.05 0.01h126.24c16.37 0 29.63-13.27 29.63-29.64 0 16.37-13.26 29.64-29.63 29.64m-126.29-0.01h-0.05 0.05m-0.06 0h-0.04 0.04m-0.04 0h-0.04 0.04m-0.05 0h-0.04 0.04m-0.05 0h-0.04 0.04m-0.05 0h-0.03 0.03m-0.05 0h-0.03 0.03m-0.04 0h-0.04 0.04m-0.06 0h-0.02 0.02m-0.05 0h-0.02 0.02m-0.05 0h-0.02 0.02m-0.09 0h-0.01 0.01m156.51-29.67v-0.02 0.02m0-0.05v-0.02 0.02m0-0.05v-0.02 0.02m0-0.05v-0.01 0.01m0-0.05v-0.01 0.01m0-0.04v-0.02 0.02m0-0.06m0-0.04v-0.01 0.01m0-0.05v-0.01 0.01m0-0.05m-0.01-0.05" fill="#e662a6"/></g>
  <g id="change1_6"><path d="m306.92 137.98c-2.1-2.19-4.11-7.6-6.07-11.88-1.96 4.28-3.97 9.69-6.07 11.88-2.46 2.57-7.4 5.23-9.23 6 1.83 0.58 7.16 3.38 9.23 5.55 2.43 2.58 4.63 8.07 6.07 12.34 1.44-4.27 3.63-9.76 6.07-12.34 2.06-2.17 7.4-4.97 9.23-5.55-1.83-0.77-6.77-3.43-9.23-6" fill="#fbd3e2"/></g>
  <g id="change2_6"><path d="m306.92 137.98l1.45-1.38c-0.36-0.37-0.81-1-1.28-1.8-0.7-1.21-1.44-2.78-2.18-4.45s-1.49-3.44-2.24-5.08c-0.33-0.72-1.03-1.17-1.82-1.17-0.78 0-1.49 0.45-1.82 1.16-1 2.2-1.99 4.62-2.98 6.72-0.49 1.04-0.98 2.01-1.44 2.82-0.47 0.8-0.93 1.43-1.28 1.8-1.01 1.06-2.76 2.33-4.44 3.35-1.69 1.03-3.35 1.87-4.12 2.19-0.77 0.33-1.26 1.1-1.22 1.94s0.59 1.56 1.4 1.81c0.29 0.09 0.93 0.35 1.66 0.7 1.11 0.53 2.5 1.29 3.76 2.08 1.25 0.78 2.4 1.65 2.95 2.24 0.96 0.99 2.07 2.87 3.06 5 0.98 2.13 1.87 4.51 2.57 6.6 0.28 0.81 1.04 1.36 1.9 1.36s1.62-0.55 1.9-1.36c0.7-2.09 1.59-4.47 2.57-6.6s2.1-4.01 3.06-5c0.36-0.39 1-0.92 1.75-1.45 1.13-0.79 2.52-1.61 3.77-2.27 0.62-0.33 1.22-0.62 1.72-0.84 0.5-0.23 0.92-0.39 1.13-0.46 0.8-0.25 1.36-0.97 1.4-1.81s-0.45-1.61-1.22-1.94c-0.77-0.32-2.43-1.16-4.12-2.19-1.68-1.02-3.44-2.29-4.44-3.35l-1.45 1.38-1.44 1.38c1.45 1.51 3.39 2.86 5.25 4s3.58 2.02 4.64 2.46l0.78-1.84-0.6-1.9c-0.62 0.2-1.34 0.5-2.19 0.9-1.25 0.61-2.75 1.41-4.16 2.3-1.41 0.9-2.74 1.84-3.73 2.88-1.49 1.58-2.68 3.73-3.77 6.06-1.08 2.33-2.01 4.83-2.75 7.01l1.9 0.64 1.9-0.64c-0.74-2.18-1.67-4.68-2.75-7.01-1.09-2.33-2.29-4.48-3.77-6.06-0.67-0.7-1.47-1.34-2.35-1.96-1.33-0.94-2.84-1.82-4.22-2.55-0.69-0.36-1.35-0.68-1.93-0.95-0.6-0.26-1.11-0.47-1.58-0.62l-0.6 1.9 0.78 1.84c1.05-0.44 2.78-1.32 4.64-2.46s3.8-2.49 5.25-4c0.69-0.72 1.28-1.59 1.84-2.55 0.84-1.45 1.62-3.12 2.39-4.84 0.76-1.72 1.5-3.47 2.22-5.04l-1.82-0.83-1.82 0.83c0.96 2.09 1.95 4.52 2.99 6.74 0.52 1.11 1.05 2.18 1.62 3.14 0.56 0.96 1.14 1.83 1.84 2.55l1.44-1.38" fill="#ed6bae"/></g>
  <g id="change1_7"><path d="m323.25 173.38c-1.22-1.28-2.4-4.44-3.54-6.94-1.15 2.5-2.32 5.66-3.55 6.94-1.43 1.49-4.31 3.05-5.38 3.5 1.07 0.33 4.18 1.97 5.38 3.23 1.43 1.5 2.71 4.71 3.55 7.2 0.84-2.49 2.12-5.7 3.54-7.2 1.2-1.26 4.32-2.9 5.38-3.23-1.06-0.45-3.95-2.01-5.38-3.5" fill="#fbd3e2"/></g>
  <g id="change2_7"><path d="m323.25 173.38l1.45-1.39c-0.14-0.13-0.38-0.46-0.63-0.89-0.38-0.66-0.81-1.55-1.23-2.51-0.43-0.97-0.87-2-1.32-2.98-0.32-0.71-1.03-1.16-1.81-1.17-0.78 0-1.49 0.45-1.82 1.17-0.6 1.3-1.18 2.71-1.74 3.91-0.27 0.6-0.55 1.14-0.81 1.58-0.25 0.43-0.48 0.76-0.62 0.89-0.5 0.53-1.48 1.25-2.43 1.82-0.47 0.29-0.94 0.56-1.35 0.77-0.4 0.21-0.75 0.37-0.94 0.46-0.77 0.32-1.25 1.09-1.21 1.93 0.03 0.84 0.59 1.56 1.39 1.82 0.1 0.02 0.46 0.17 0.86 0.36 0.62 0.3 1.41 0.72 2.11 1.16s1.33 0.92 1.56 1.18c0.45 0.45 1.08 1.49 1.63 2.69 0.56 1.2 1.07 2.57 1.47 3.77 0.28 0.81 1.04 1.36 1.9 1.36s1.62-0.55 1.89-1.36c0.41-1.2 0.92-2.57 1.47-3.77s1.19-2.24 1.63-2.69c0.16-0.17 0.49-0.45 0.9-0.73 0.62-0.44 1.4-0.9 2.11-1.28 0.35-0.18 0.68-0.34 0.95-0.46 0.28-0.13 0.5-0.22 0.57-0.23 0.81-0.26 1.36-0.98 1.4-1.82s-0.45-1.61-1.22-1.93c-0.19-0.09-0.53-0.25-0.94-0.46-0.61-0.32-1.36-0.76-2.06-1.22-0.7-0.47-1.34-0.98-1.71-1.37l-2.9 2.77c0.94 0.97 2.11 1.78 3.24 2.47 0.55 0.34 1.09 0.64 1.57 0.89 0.49 0.26 0.9 0.45 1.25 0.6l0.77-1.84-0.6-1.91c-0.43 0.14-0.87 0.33-1.38 0.57-0.77 0.37-1.66 0.85-2.51 1.39-0.87 0.55-1.67 1.11-2.34 1.81-0.98 1.05-1.69 2.36-2.35 3.76-0.65 1.4-1.2 2.88-1.64 4.17l1.9 0.64 1.89-0.64c-0.43-1.29-0.98-2.77-1.63-4.17-0.66-1.4-1.38-2.71-2.36-3.76-0.44-0.47-0.95-0.87-1.49-1.25-0.82-0.58-1.72-1.11-2.55-1.54-0.42-0.22-0.81-0.42-1.18-0.58-0.36-0.16-0.68-0.3-1-0.4l-0.61 1.91 0.78 1.84c0.35-0.15 0.76-0.34 1.24-0.6 0.72-0.38 1.58-0.87 2.43-1.44 0.84-0.56 1.68-1.19 2.38-1.92 0.48-0.5 0.84-1.06 1.19-1.65 0.52-0.89 0.98-1.89 1.43-2.9s0.88-2.04 1.29-2.93l-1.81-0.84-1.82 0.84c0.55 1.19 1.13 2.61 1.75 3.93 0.31 0.67 0.63 1.31 0.97 1.9 0.35 0.6 0.72 1.15 1.19 1.65l1.45-1.38" fill="#ed6bae"/></g>
  <g id="change1_8"><path d="m105.8 241.21c2.09-2.19 4.11-7.61 6.07-11.89 1.96 4.28 3.97 9.7 6.07 11.89 2.45 2.56 7.4 5.23 9.23 6-1.83 0.58-7.17 3.38-9.23 5.55-2.44 2.57-4.64 8.06-6.07 12.34-1.44-4.28-3.64-9.77-6.07-12.34-2.07-2.17-7.402-4.97-9.234-5.55 1.832-0.77 6.774-3.44 9.234-6" fill="#fbd3e2"/></g>
  <g id="change2_8"><path d="m105.8 241.21l1.44 1.38c0.7-0.73 1.28-1.59 1.84-2.55 0.84-1.45 1.62-3.13 2.38-4.84 0.77-1.72 1.51-3.48 2.22-5.04l-1.81-0.84-1.82 0.84c0.96 2.08 1.95 4.51 2.99 6.73 0.52 1.12 1.05 2.18 1.62 3.15 0.56 0.96 1.14 1.82 1.84 2.55 1.45 1.51 3.39 2.86 5.25 4 1.86 1.13 3.58 2.01 4.64 2.46l0.78-1.84-0.6-1.91c-0.62 0.2-1.34 0.51-2.19 0.91-1.26 0.6-2.75 1.41-4.16 2.3-1.42 0.9-2.74 1.84-3.73 2.88-1.49 1.57-2.69 3.73-3.78 6.06-1.07 2.33-2 4.83-2.74 7.01l1.9 0.64 1.89-0.64c-0.73-2.18-1.66-4.68-2.74-7.01-1.09-2.33-2.29-4.49-3.77-6.07-0.67-0.69-1.47-1.33-2.36-1.96-1.32-0.93-2.83-1.82-4.21-2.54-0.692-0.36-1.348-0.68-1.938-0.95s-1.101-0.48-1.57-0.63l-0.606 1.91 0.782 1.84c1.058-0.45 2.782-1.33 4.642-2.46 1.86-1.14 3.8-2.49 5.25-4l-1.44-1.38-1.45-1.39c-1.01 1.07-2.76 2.33-4.444 3.36-1.683 1.02-3.344 1.86-4.117 2.19s-1.258 1.09-1.219 1.93 0.594 1.56 1.395 1.82c0.293 0.09 0.93 0.35 1.664 0.7 1.113 0.53 2.501 1.28 3.761 2.07 1.25 0.79 2.4 1.65 2.95 2.25 0.96 0.98 2.07 2.86 3.05 4.99 0.99 2.13 1.88 4.51 2.58 6.6 0.28 0.82 1.04 1.36 1.9 1.36s1.62-0.54 1.89-1.36c0.7-2.09 1.6-4.47 2.58-6.6 0.98-2.12 2.1-4.01 3.05-4.99 0.37-0.4 1.01-0.92 1.76-1.45 1.13-0.8 2.52-1.62 3.77-2.27 0.62-0.33 1.22-0.62 1.72-0.85 0.5-0.22 0.91-0.38 1.13-0.45 0.8-0.26 1.36-0.98 1.4-1.82s-0.45-1.6-1.22-1.93-2.43-1.17-4.12-2.19c-1.69-1.03-3.44-2.29-4.44-3.35-0.36-0.37-0.82-1.01-1.28-1.81-0.7-1.2-1.44-2.78-2.18-4.45s-1.49-3.44-2.25-5.08c-0.32-0.71-1.03-1.17-1.81-1.17-0.79 0-1.49 0.46-1.82 1.17-1 2.19-2 4.61-2.98 6.71-0.49 1.05-0.98 2.02-1.45 2.82-0.46 0.8-0.92 1.44-1.27 1.81l1.45 1.38" fill="#ed6bae"/></g>
 </g>
</svg>