<?xml version="1.0" encoding="UTF-8"?><svg xmlns="http://www.w3.org/2000/svg" height="2422pt" version="1.1" viewBox="0 0 3253.7 2421.95" width="3253.7pt">
 <g fill-rule="evenodd" id="surface1">
  <g id="change1_1"><path d="m1080.4 12.129c592-83.004 639.9 977.18 92.1 951.52-440.42-20.61-606.59-879.39-92.1-951.52" fill="#2e2e41"/></g>
  <g id="change2_1"><path d="m1104.2 156.33c411.8-57.736 445.1 679.71 64.1 661.86-306.35-14.34-421.93-611.69-64.1-661.86" fill="#584c4d"/></g>
  <g id="change1_2"><path d="m2031.9 12.129c652.1-142.32 575.9 1016-30.6 951.52-480.1-51.02-386.6-860.47 30.6-951.52" fill="#2e2e41"/></g>
  <g id="change2_2"><path d="m2046.6 144.84c468.3-102.24 413.6 729.71-22 683.43-344.9-36.65-277.7-618.04 22-683.43" fill="#584c4d"/></g>
  <g id="change1_3"><path d="m865.6 1285.9c-231.87 506.2-938.47 148.6-859.47-352.97 83.182-528.31 1028.1-258.98 859.47 352.97" fill="#2e2e41"/></g>
  <g id="change2_3"><path d="m735.59 1226c-160.57 350.5-649.86 102.9-595.15-244.46 57.6-365.83 711.9-179.33 595.15 244.46" fill="#584c4d"/></g>
  <g id="change3_1"><path d="m2784 656.72c152.5-29.54 343.1 24.66 414.3 153.44 196.4 355.34-165.5 789.54-521.8 752.04-195.6-20.6-308.6-187.1-322.3-337.6-29.1-322.4 201-523.6 429.8-567.88" fill="inherit"/></g>
  <g id="change1_4"><path d="m2784 656.72c152.5-29.54 343.1 24.66 414.3 153.44 196.4 355.34-165.5 789.54-521.8 752.04-195.6-20.6-308.6-187.1-322.3-337.6-29.1-322.4 201-523.6 429.8-567.88" fill="#2e2e41"/></g>
  <g id="change2_4"><path d="m2789.4 786.12c108.6-21.04 244.4 17.57 295.2 109.31 139.8 253.17-118 562.47-371.8 535.77-139.4-14.7-219.9-133.3-229.6-240.5-20.7-229.7 143.2-373.04 306.2-404.58" fill="#584c4d"/></g>
  <g id="change1_5"><path d="m1464.1 1132.4c537.7-92.7 1031.4 294.8 920.9 951.6-23 135.9-140 328.1-307 337.6-134.9 7.7-292.5-123.6-460.4-122.7-208.5 1-372.8 185.8-567.9 92.1-163.87-78.9-230.13-397.5-199.46-629.3 44.08-334.2 289.86-573.4 613.86-629.3" fill="#2e2e41"/></g>
  <g id="change2_5"><path d="m1496.1 1312.4c428.5-66.8 821.9 212.2 733.8 684.9-18.3 97.9-111.5 236.3-244.6 243.1-107.5 5.5-233.1-89-366.9-88.4-166.1 0.7-297 133.8-452.5 66.3-130.5-56.7-183.33-286.1-158.9-452.9 35.1-240.6 230.9-412.8 489.1-453" fill="#584c4d"/></g>
 </g>
</svg>