<?xml version="1.0" encoding="UTF-8"?><svg xmlns="http://www.w3.org/2000/svg" xmlns:xlink="http://www.w3.org/1999/xlink" height="232.1" preserveAspectRatio="xMidYMid meet" version="1.1" viewBox="96.6 97.6 234.1 232.1" width="234.1" zoomAndPan="magnify">
 <g id="surface1">
  <g id="change1_1"><path d="m270.73 327.63c-8.13 0-14.74-6.61-14.74-14.74v-155.36c0-8.13 6.61-14.74 14.74-14.74h52c3.24 0 5.88 2.63 5.88 5.87s-2.64 5.88-5.88 5.88h-24.21v12.98h24.21c3.24 0 5.88 2.63 5.88 5.87s-2.64 5.88-5.88 5.88h-24.21v12.97h24.21c3.24 0 5.88 2.64 5.88 5.88s-2.64 5.87-5.88 5.87h-24.21v12.98h24.21c3.24 0 5.88 2.63 5.88 5.87s-2.64 5.88-5.88 5.88h-24.21v12.98h24.21c3.24 0 5.88 2.63 5.88 5.87s-2.64 5.88-5.88 5.88h-24.21v12.98h24.21c3.24 0 5.88 2.63 5.88 5.87s-2.64 5.88-5.88 5.88h-24.21v12.97h24.21c3.24 0 5.88 2.64 5.88 5.88s-2.64 5.87-5.88 5.87h-24.21v12.98h24.21c3.24 0 5.88 2.64 5.88 5.88s-2.64 5.87-5.88 5.87h-52" fill="#fbd3e2"/></g>
  <g id="change2_1"><path d="m322.73 140.79h-52c-9.23 0-16.74 7.51-16.74 16.74v155.36c0 9.23 7.51 16.74 16.74 16.74h52c4.34 0 7.88-3.53 7.88-7.87 0-4.35-3.54-7.88-7.88-7.88h-22.21v-8.98h22.21c4.34 0 7.88-3.53 7.88-7.87s-3.54-7.88-7.88-7.88h-22.21v-8.97h22.21c4.34 0 7.88-3.54 7.88-7.88s-3.54-7.87-7.88-7.87h-22.21v-8.98h22.21c4.34 0 7.88-3.54 7.88-7.88s-3.54-7.87-7.88-7.87h-22.21v-8.98h22.21c4.34 0 7.88-3.53 7.88-7.88 0-4.34-3.54-7.87-7.88-7.87h-22.21v-8.98h22.21c4.34 0 7.88-3.53 7.88-7.87 0-4.35-3.54-7.88-7.88-7.88h-22.21v-8.97h22.21c4.34 0 7.88-3.54 7.88-7.88s-3.54-7.87-7.88-7.87h-22.21v-8.98h22.21c4.34 0 7.88-3.54 7.88-7.88s-3.54-7.87-7.88-7.87m0 4c2.15 0 3.88 1.73 3.88 3.87s-1.73 3.88-3.88 3.88h-26.21v16.98h26.21c2.15 0 3.88 1.73 3.88 3.87s-1.73 3.88-3.88 3.88h-26.21v16.97h26.21c2.15 0 3.88 1.74 3.88 3.88s-1.73 3.87-3.88 3.87h-26.21v16.98h26.21c2.15 0 3.88 1.73 3.88 3.87s-1.73 3.88-3.88 3.88h-26.21v16.98h26.21c2.15 0 3.88 1.73 3.88 3.87s-1.73 3.88-3.88 3.88h-26.21v16.98h26.21c2.15 0 3.88 1.73 3.88 3.87s-1.73 3.88-3.88 3.88h-26.21v16.97h26.21c2.15 0 3.88 1.74 3.88 3.88 0 2.13-1.73 3.87-3.88 3.87h-26.21v16.98h26.21c2.15 0 3.88 1.73 3.88 3.88 0 2.13-1.73 3.87-3.88 3.87h-52c-7.03 0-12.74-5.7-12.74-12.74v-155.36c0-7.04 5.71-12.74 12.74-12.74h52" fill="#ed6bae"/></g>
  <g id="change3_1"><path d="m266.13 324.76c-4.71-1.83-8.07-6.37-8.14-11.71v-0.03-0.03-0.01-0.02-0.03-0.01-0.03-155.36c0-7.04 5.71-12.74 12.74-12.74h52 0.01 0.01 0.01 0.01 0.01 0.01c1.52 0.02 2.83 0.92 3.44 2.23h-51.79c-7.03 0-12.74 5.69-12.74 12.73v155.37c0 3.86 1.73 7.31 4.43 9.64" fill="#fefafc"/></g>
  <g id="change4_1"><path d="m257.99 313.05m0-0.03m0-0.03v-0.01 0.01m0-0.03m0-0.03v-0.01 0.01m0-0.04m64.8-168.1m-0.01 0h-0.01 0.01m-0.01 0h-0.01 0.01m-0.02 0m-0.01 0h-0.01 0.01" fill="#fceff6"/></g>
  <g id="change1_2"><path d="m146.39 277.38c-9.84 0-17.85 8.01-17.85 17.85s8.01 17.85 17.85 17.85c9.85 0 17.86-8.01 17.86-17.85s-8.01-17.85-17.86-17.85m0 50.25c-17.86 0-32.4-14.53-32.4-32.4s14.54-32.4 32.4-32.4h0.03l59.69-111.73 0.1-0.19 0.31-0.45c2.9-4.26 5.18-7.63 9.34-7.63 1.37 0 2.85 0.39 4.51 1.18l1.4 0.67c7.23 3.44 5.57 8.82 3.65 15.05l-0.1 0.31-0.07 0.18-49.75 118.04c-0.24 0.49-0.48 0.94-0.71 1.35 2.62 4.77 4 10.14 4 15.62 0 17.87-14.53 32.4-32.4 32.4" fill="#fbd3e2"/></g>
  <g id="change2_2"><path d="m146.39 311.08c-8.74 0-15.85-7.11-15.85-15.85s7.11-15.85 15.85-15.85c8.75 0 15.86 7.11 15.86 15.85s-7.11 15.85-15.86 15.85m69.47-170.25c-5.22 0-8.02 4.13-10.99 8.51l-0.31 0.45c-0.08 0.12-0.15 0.24-0.22 0.37l-59.13 110.69c-18.42 0.63-33.22 15.81-33.22 34.38 0 18.97 15.44 34.4 34.4 34.4 18.97 0 34.4-15.43 34.4-34.4 0-5.45-1.28-10.79-3.74-15.61l0.21-0.42 0.08-0.17 49.76-118.03c0.05-0.12 0.1-0.25 0.13-0.38l0.1-0.3c1.92-6.21 4.09-13.26-4.7-17.44l-1.4-0.67c-1.94-0.93-3.69-1.38-5.37-1.38m-69.47 174.25c10.97 0 19.86-8.88 19.86-19.85 0-10.96-8.89-19.85-19.86-19.85-10.96 0-19.85 8.89-19.85 19.85 0 10.97 8.89 19.85 19.85 19.85m69.47-170.25c1.05 0 2.24 0.31 3.65 0.99l1.4 0.66c5.76 2.75 4.48 6.57 2.5 12.97l-49.76 118.03c-0.38 0.81-0.79 1.49-1.21 2.07 2.76 4.58 4.35 9.94 4.35 15.68 0 16.79-13.61 30.4-30.4 30.4-16.78 0-30.4-13.61-30.4-30.4s13.62-30.4 30.4-30.4c0.41 0 0.81 0.02 1.21 0.03l60.27-112.82c2.91-4.28 4.77-7.21 7.99-7.21" fill="#ed6bae"/></g>
  <g id="change5_1"><path d="m146.39 325.63h-0.04-0.01-0.04-0.01-0.03-0.04-0.01c-2.13-0.01-4.2-0.25-6.21-0.68 1.19 0.14 2.39 0.23 3.61 0.23 16.79 0 30.4-13.62 30.4-30.41 0-5.73-1.59-11.09-4.35-15.68 0.42-0.58 0.82-1.26 1.21-2.07l49.76-118.03c1.97-6.4 3.26-10.22-2.5-12.97l-1.4-0.66c-0.43-0.2-0.83-0.36-1.21-0.5 0.11-0.01 0.23-0.01 0.35-0.01 1.05 0 2.23 0.29 3.64 0.97l1.4 0.66c3.12 1.49 4.17 3.29 4.17 5.64 0 2-0.76 4.39-1.67 7.33l-49.76 118.03c-0.38 0.81-0.79 1.49-1.21 2.07 2.76 4.58 4.35 9.94 4.35 15.68 0 16.79-13.61 30.4-30.4 30.4" fill="#f3c0d5"/></g>
  <g id="change6_1"><path d="m146.39 325.63h-0.04 0.04c16.79 0 30.4-13.61 30.4-30.4 0 16.79-13.61 30.4-30.4 30.4m-0.05 0h-0.04 0.04m-0.05 0h-0.03 0.03m-0.07 0h-0.01 0.01m26.22-46.08c0.42-0.58 0.83-1.26 1.21-2.07l49.76-118.03c0.91-2.94 1.67-5.33 1.67-7.33 0 2-0.76 4.39-1.67 7.33l-49.76 118.03c-0.38 0.81-0.79 1.49-1.21 2.07" fill="#e662a6"/></g>
  <g id="change1_3"><path d="m208.84 279.77c-5.52 3.18-8.95 9.1-8.95 15.46 0 9.84 8 17.85 17.85 17.85s17.85-8.01 17.85-17.85-8-17.85-17.85-17.85c-2.19 0-4.35 0.41-6.42 1.21zm8.9 47.86c-17.86 0-32.4-14.53-32.4-32.4 0-5.68 1.48-11.23 4.3-16.13-0.13-0.24-0.26-0.5-0.38-0.75l-49.8-118.13-0.07-0.18-0.09-0.31c-1.92-6.23-3.59-11.61 3.65-15.05l1.39-0.67c1.67-0.79 3.14-1.18 4.52-1.18 4.15 0 6.44 3.37 9.33 7.62l0.31 0.46 0.11 0.19 59.69 111.74c17.61 0.29 31.84 14.71 31.84 32.39 0 17.87-14.53 32.4-32.4 32.4" fill="#fbd3e2"/></g>
  <g id="change2_3"><path d="m212.11 280.43c1.82-0.7 3.71-1.05 5.63-1.05 8.74 0 15.85 7.11 15.85 15.85s-7.11 15.85-15.85 15.85-15.85-7.11-15.85-15.85c0-5.62 3.02-10.85 7.88-13.69zm-63.25-139.6c-1.68 0-3.43 0.45-5.38 1.38l-1.4 0.67c-8.79 4.18-6.61 11.23-4.69 17.44l0.09 0.3c0.04 0.13 0.09 0.26 0.14 0.38l49.76 118.03 0.01 0.02c-2.66 4.97-4.05 10.51-4.05 16.18 0 18.97 15.43 34.4 34.4 34.4s34.4-15.43 34.4-34.4c0-18.37-14.48-33.43-32.62-34.35l-59.14-110.72c-0.07-0.13-0.15-0.25-0.23-0.37l-0.31-0.46c-2.96-4.37-5.77-8.5-10.98-8.5zm68.88 174.25c10.96 0 19.85-8.88 19.85-19.85 0-10.96-8.89-19.85-19.85-19.85-2.55 0-4.97 0.49-7.22 1.37l-2.61 1.24c-5.98 3.42-10.02 9.85-10.02 17.24 0 10.97 8.89 19.85 19.85 19.85m-68.88-170.25c3.21 0 5.07 2.93 7.99 7.21l60.26 112.81c0.21-0.01 0.42-0.02 0.63-0.02 16.79 0 30.4 13.61 30.4 30.4s-13.61 30.4-30.4 30.4-30.4-13.61-30.4-30.4c0-5.92 1.7-11.45 4.63-16.12-0.31-0.49-0.61-1.02-0.91-1.63l-49.76-118.03c-1.97-6.4-3.26-10.22 2.5-12.97l1.4-0.66c1.42-0.68 2.61-0.99 3.66-0.99" fill="#ed6bae"/></g>
  <g id="change1_4"><path d="m183.01 232.02c-3.49 0-6.33-2.84-6.33-6.33s2.84-6.33 6.33-6.33 6.33 2.84 6.33 6.33-2.84 6.33-6.33 6.33" fill="#fbd3e2"/></g>
  <g id="change2_4"><path d="m183.01 217.36c-4.59 0-8.33 3.73-8.33 8.33 0 4.59 3.74 8.33 8.33 8.33 4.6 0 8.33-3.74 8.33-8.33 0-4.6-3.73-8.33-8.33-8.33zm0 4c2.39 0 4.33 1.93 4.33 4.33 0 2.38-1.94 4.33-4.33 4.33s-4.33-1.95-4.33-4.33c0-2.4 1.94-4.33 4.33-4.33" fill="#ed6bae"/></g>
  <g id="change1_5"><path d="m118.42 199.71c-1.95-2.03-3.81-7.05-5.63-11.02-1.83 3.97-3.69 8.99-5.64 11.02-2.27 2.38-6.86 4.85-8.556 5.57 1.696 0.54 6.646 3.13 8.556 5.15 2.26 2.38 4.3 7.48 5.64 11.44 1.33-3.96 3.37-9.06 5.63-11.44 1.91-2.02 6.86-4.61 8.56-5.15-1.7-0.72-6.28-3.19-8.56-5.57" fill="#fbd3e2"/></g>
  <g id="change2_5"><path d="m118.42 199.71l1.44-1.38c-0.31-0.33-0.73-0.91-1.16-1.65-0.65-1.11-1.33-2.56-2.02-4.11-0.68-1.55-1.38-3.19-2.07-4.72-0.33-0.71-1.04-1.16-1.82-1.16-0.79 0-1.49 0.45-1.82 1.16-0.93 2.04-1.86 4.28-2.77 6.23-0.45 0.97-0.9 1.86-1.33 2.6s-0.85 1.32-1.16 1.65c-0.92 0.97-2.54 2.13-4.1 3.08-1.55 0.95-3.09 1.73-3.801 2.03-0.77 0.33-1.254 1.1-1.215 1.94 0.039 0.83 0.594 1.55 1.394 1.81 0.262 0.08 0.852 0.32 1.528 0.64 1.024 0.49 2.304 1.18 3.474 1.92 1.15 0.72 2.21 1.52 2.71 2.05 0.86 0.9 1.9 2.63 2.8 4.6 0.92 1.96 1.74 4.17 2.39 6.1 0.27 0.82 1.04 1.37 1.9 1.37 0.85 0 1.62-0.55 1.89-1.37 0.65-1.93 1.48-4.14 2.39-6.1 0.9-1.97 1.94-3.7 2.8-4.6 0.33-0.35 0.92-0.84 1.61-1.32 1.04-0.73 2.32-1.49 3.48-2.1 0.58-0.3 1.12-0.57 1.58-0.77 0.46-0.21 0.85-0.36 1.04-0.42 0.8-0.26 1.36-0.98 1.4-1.81 0.04-0.84-0.44-1.61-1.22-1.94-0.71-0.3-2.25-1.08-3.8-2.03-1.56-0.95-3.18-2.11-4.1-3.08l-2.89 2.76c1.37 1.42 3.17 2.67 4.91 3.73 1.73 1.06 3.33 1.88 4.32 2.3l0.78-1.84-0.6-1.91c-0.59 0.19-1.26 0.48-2.05 0.85-1.17 0.56-2.56 1.31-3.88 2.14-1.32 0.84-2.55 1.71-3.49 2.69-1.39 1.49-2.5 3.49-3.52 5.66-1 2.17-1.87 4.49-2.55 6.52l1.9 0.64 1.89-0.64c-0.68-2.03-1.54-4.35-2.55-6.52s-2.13-4.17-3.53-5.66c-0.62-0.66-1.37-1.25-2.2-1.84-1.24-0.87-2.64-1.69-3.93-2.37-0.64-0.34-1.25-0.64-1.8-0.88-0.55-0.25-1.029-0.44-1.475-0.59l-0.601 1.91 0.777 1.84c0.989-0.42 2.589-1.24 4.329-2.3 1.73-1.06 3.54-2.31 4.9-3.73 0.65-0.69 1.2-1.5 1.72-2.39 0.79-1.35 1.52-2.91 2.22-4.5 0.71-1.6 1.4-3.23 2.07-4.68l-1.82-0.83-1.82 0.83c0.89 1.93 1.81 4.18 2.77 6.25 0.49 1.03 0.98 2.03 1.51 2.93 0.52 0.89 1.07 1.7 1.72 2.39l1.45-1.38" fill="#ed6bae"/></g>
  <g id="change1_6"><path d="m133.56 232.54c-1.13-1.18-2.22-4.11-3.28-6.43-1.07 2.32-2.15 5.25-3.29 6.43-1.33 1.39-4 2.83-4.99 3.25 0.99 0.31 3.88 1.82 4.99 3 1.32 1.39 2.51 4.36 3.29 6.68 0.77-2.32 1.96-5.29 3.28-6.68 1.12-1.18 4.01-2.69 5-3-0.99-0.42-3.67-1.86-5-3.25" fill="#fbd3e2"/></g>
  <g id="change2_6"><path d="m133.56 232.54l1.45-1.38c-0.12-0.12-0.33-0.41-0.56-0.8-0.35-0.6-0.74-1.43-1.14-2.32-0.39-0.9-0.8-1.86-1.21-2.76-0.33-0.71-1.04-1.17-1.82-1.17s-1.49 0.45-1.82 1.16c-0.55 1.21-1.09 2.52-1.61 3.63-0.26 0.55-0.51 1.06-0.74 1.45-0.23 0.4-0.45 0.69-0.56 0.81h-0.01c-0.44 0.47-1.34 1.13-2.22 1.66-0.43 0.27-0.87 0.51-1.24 0.71-0.37 0.19-0.69 0.34-0.86 0.42-0.77 0.32-1.26 1.09-1.22 1.93s0.59 1.56 1.39 1.82c0.09 0.02 0.41 0.15 0.79 0.33 0.57 0.27 1.29 0.66 1.94 1.07 0.64 0.4 1.22 0.85 1.42 1.06v0.01c0.39 0.4 0.98 1.35 1.48 2.45 0.52 1.11 0.99 2.38 1.36 3.49 0.28 0.81 1.04 1.36 1.9 1.36 0.86-0.01 1.62-0.56 1.9-1.37 0.37-1.11 0.84-2.37 1.35-3.48 0.51-1.1 1.09-2.05 1.49-2.45v-0.01c0.12-0.14 0.43-0.39 0.81-0.66 0.56-0.39 1.29-0.82 1.94-1.16 0.32-0.18 0.62-0.32 0.88-0.44 0.24-0.11 0.45-0.19 0.51-0.21 0.8-0.25 1.36-0.97 1.39-1.81 0.04-0.84-0.44-1.61-1.21-1.93-0.17-0.08-0.49-0.23-0.86-0.42-0.57-0.3-1.26-0.69-1.9-1.13-0.65-0.42-1.24-0.89-1.57-1.24l-1.45 1.38-1.44 1.38c0.88 0.92 1.98 1.67 3.02 2.31 0.52 0.32 1.03 0.61 1.48 0.84s0.83 0.42 1.16 0.56l0.78-1.84-0.61-1.91c-0.41 0.13-0.81 0.31-1.29 0.54-0.72 0.34-1.55 0.79-2.35 1.29-0.81 0.51-1.56 1.04-2.2 1.7-0.92 1-1.59 2.22-2.21 3.53-0.6 1.31-1.11 2.69-1.52 3.89l1.9 0.64 1.9-0.64c-0.41-1.21-0.92-2.58-1.53-3.89s-1.28-2.53-2.21-3.53v0.01c-0.42-0.45-0.9-0.82-1.41-1.19-0.76-0.53-1.6-1.03-2.38-1.43-0.39-0.21-0.76-0.39-1.1-0.54s-0.64-0.28-0.95-0.38l-0.6 1.91 0.77 1.84c0.33-0.14 0.72-0.33 1.17-0.56 0.67-0.35 1.47-0.81 2.26-1.34s1.57-1.12 2.24-1.81l-0.01 0.01c0.46-0.48 0.8-1 1.13-1.56 0.49-0.84 0.92-1.77 1.34-2.71s0.81-1.89 1.2-2.71l-1.82-0.84-1.82 0.84c0.51 1.1 1.05 2.41 1.62 3.64 0.29 0.62 0.59 1.22 0.91 1.78 0.33 0.56 0.67 1.08 1.13 1.55l1.44-1.38" fill="#ed6bae"/></g>
  <g id="change1_7"><path d="m238.16 110.59c1.95-2.03 3.82-7.05 5.64-11.02 1.82 3.97 3.68 8.99 5.63 11.02 2.28 2.38 6.86 4.85 8.56 5.57-1.7 0.54-6.65 3.13-8.56 5.15-2.26 2.38-4.3 7.48-5.63 11.44-1.34-3.96-3.37-9.06-5.64-11.44-1.91-2.02-6.86-4.61-8.55-5.15 1.69-0.72 6.28-3.19 8.55-5.57" fill="#fbd3e2"/></g>
  <g id="change2_7"><path d="m238.16 110.59l1.45 1.38c0.66-0.68 1.2-1.49 1.73-2.4 0.78-1.34 1.51-2.9 2.21-4.5 0.71-1.59 1.4-3.22 2.06-4.67l-1.81-0.83-1.82 0.83c0.89 1.94 1.81 4.19 2.78 6.25 0.48 1.04 0.97 2.03 1.5 2.93s1.07 1.71 1.73 2.4l-0.01-0.01c1.37 1.42 3.18 2.67 4.91 3.73s3.33 1.88 4.32 2.3l0.78-1.84-0.6-1.91c-0.59 0.19-1.26 0.48-2.05 0.85-1.17 0.56-2.55 1.31-3.87 2.14-1.32 0.84-2.56 1.71-3.49 2.69-1.4 1.49-2.51 3.5-3.53 5.66-1 2.17-1.87 4.5-2.55 6.52l1.9 0.64 1.89-0.64c-0.68-2.02-1.54-4.35-2.55-6.51-1.01-2.17-2.12-4.18-3.52-5.67-0.63-0.66-1.38-1.25-2.21-1.84-1.24-0.87-2.64-1.69-3.93-2.37-0.64-0.33-1.25-0.63-1.8-0.88s-1.03-0.45-1.47-0.59l-0.6 1.91 0.77 1.84c1-0.42 2.6-1.24 4.33-2.3s3.54-2.31 4.9-3.72l-1.45-1.39-1.44-1.38c-0.92 0.97-2.54 2.14-4.1 3.08-1.55 0.95-3.09 1.73-3.8 2.03-0.77 0.32-1.25 1.1-1.21 1.93 0.03 0.84 0.59 1.57 1.39 1.82 0.26 0.08 0.85 0.32 1.53 0.64 1.02 0.49 2.31 1.18 3.47 1.92 1.16 0.72 2.21 1.52 2.71 2.05 0.87 0.9 1.9 2.63 2.81 4.6s1.73 4.17 2.38 6.11c0.28 0.81 1.04 1.36 1.9 1.36s1.62-0.55 1.89-1.36c0.65-1.94 1.47-4.14 2.39-6.11 0.9-1.96 1.94-3.7 2.8-4.6 0.33-0.35 0.92-0.83 1.61-1.32 1.04-0.73 2.33-1.49 3.48-2.09 0.58-0.31 1.12-0.57 1.59-0.79 0.46-0.2 0.84-0.35 1.03-0.41 0.8-0.25 1.36-0.98 1.4-1.81 0.04-0.84-0.44-1.61-1.22-1.94-0.71-0.3-2.25-1.08-3.8-2.03-1.56-0.94-3.18-2.11-4.09-3.08-0.32-0.33-0.74-0.91-1.17-1.65-0.64-1.11-1.33-2.56-2.01-4.11-0.69-1.55-1.38-3.19-2.09-4.716-0.32-0.714-1.03-1.168-1.81-1.164-0.79 0-1.5 0.453-1.82 1.164-0.93 2.036-1.86 4.286-2.77 6.226-0.45 0.97-0.9 1.86-1.33 2.6s-0.84 1.32-1.16 1.65l1.44 1.38" fill="#ed6bae"/></g>
  <g id="change1_8"><path d="m146.39 277.38c-9.84 0-17.85 8.01-17.85 17.85s8.01 17.85 17.85 17.85c9.85 0 17.86-8.01 17.86-17.85s-8.01-17.85-17.86-17.85zm0 50.25c-17.86 0-32.4-14.53-32.4-32.4s14.54-32.4 32.4-32.4h0.03l59.69-111.73 0.1-0.19 0.31-0.45c2.9-4.26 5.18-7.63 9.34-7.63 1.37 0 2.85 0.39 4.51 1.18l1.4 0.67c7.23 3.44 5.57 8.82 3.65 15.05l-0.1 0.31-0.07 0.18-49.75 118.04c-0.24 0.49-0.48 0.94-0.71 1.35 2.62 4.77 4 10.14 4 15.62 0 17.87-14.53 32.4-32.4 32.4" fill="#fbd3e2"/></g>
  <g id="change2_8"><path d="m146.39 311.08c-8.74 0-15.85-7.11-15.85-15.85s7.11-15.85 15.85-15.85c8.75 0 15.86 7.11 15.86 15.85s-7.11 15.85-15.86 15.85zm69.47-170.25c-5.22 0-8.02 4.13-10.99 8.51l-0.31 0.45c-0.08 0.12-0.15 0.24-0.22 0.37l-59.13 110.69c-18.42 0.63-33.22 15.81-33.22 34.38 0 18.97 15.44 34.4 34.4 34.4 18.97 0 34.4-15.43 34.4-34.4 0-5.45-1.28-10.79-3.74-15.61l0.21-0.42 0.08-0.17 49.76-118.03c0.05-0.12 0.1-0.25 0.13-0.38l0.1-0.3c1.92-6.21 4.09-13.26-4.7-17.44l-1.4-0.67c-1.94-0.93-3.69-1.38-5.37-1.38zm-69.47 174.25c10.97 0 19.86-8.88 19.86-19.85 0-10.96-8.89-19.85-19.86-19.85-10.96 0-19.85 8.89-19.85 19.85 0 10.97 8.89 19.85 19.85 19.85m69.47-170.25c1.05 0 2.24 0.31 3.65 0.99l1.4 0.66c5.76 2.75 4.48 6.57 2.5 12.97l-49.76 118.03c-0.38 0.81-0.79 1.49-1.21 2.07 2.76 4.58 4.35 9.94 4.35 15.68 0 16.79-13.61 30.4-30.4 30.4-16.78 0-30.4-13.61-30.4-30.4s13.62-30.4 30.4-30.4c0.41 0 0.81 0.02 1.21 0.03l60.27-112.82c2.91-4.28 4.77-7.21 7.99-7.21" fill="#ed6bae"/></g>
 </g>
</svg>