<?xml version="1.0" encoding="UTF-8"?><svg xmlns="http://www.w3.org/2000/svg" xmlns:xlink="http://www.w3.org/1999/xlink" height="143.4" preserveAspectRatio="xMidYMid meet" version="1.1" viewBox="97.5 141.5 230.1 143.4" width="230.1" zoomAndPan="magnify">
 <g id="surface1">
  <g id="change1_1"><path d="m162.93 276.1c-15.42 0-27.96-14.9-27.96-33.21v-19.42c0-18.31 12.54-33.2 27.96-33.2h100.71c15.41 0 27.96 14.89 27.96 33.2v19.42c0 18.31-12.55 33.21-27.96 33.21h-100.71" fill="#fbd3e2"/></g>
  <g id="change2_1"><path d="m263.64 188.27h-100.71c-16.52 0-29.96 15.79-29.96 35.2v19.42c0 19.41 13.44 35.21 29.96 35.21h100.71c16.52 0 29.96-15.8 29.96-35.21v-19.42c0-19.41-13.44-35.2-29.96-35.2m0 4c14.34 0 25.96 13.97 25.96 31.2v19.42c0 17.24-11.62 31.21-25.96 31.21h-100.71c-14.34 0-25.96-13.97-25.96-31.21v-19.42c0-17.23 11.62-31.2 25.96-31.2h100.71" fill="#ed6bae"/></g>
  <g id="change3_1"><path d="m227.83 274.1h-64.9-0.04-0.01-0.04c-0.01-0.01-0.02-0.01-0.04-0.01h-0.04-0.01-0.03-0.01-0.03-0.01-0.03-0.01-0.04-0.01-0.03-0.04-0.01-0.03-0.01-0.03-0.02-0.02-0.01-0.04-0.01-0.02-0.02-0.03-0.01-0.02-0.02c-0.01 0-0.02-0.01-0.03-0.01h-0.02-0.02-0.02-0.02-0.02-0.02-0.03-0.01c-0.01 0-0.02-0.01-0.03-0.01h-0.01-0.04-0.01-0.02c-9.01-0.42-16.84-6.35-21.22-15.07 4.67 5.41 11.01 8.74 18.01 8.74h66.4c0.59 2.28 1.52 4.41 2.73 6.36m61.77-44.01c-1.3-1.22-2.72-2.31-4.23-3.25v-9.72c0-5.89-1.36-11.4-3.72-16.1 4.8 5.56 7.83 13.32 7.94 21.94v0.04 0.01 0.04 0.01 0.04 0.01 0.04 0.01 0.04 0.01c0 0.02 0 0.03 0.01 0.04v0.02 0.03 0.02 0.04 0.01 0.04 0.01 0.05 6.62" fill="#f3c0d5"/></g>
  <g id="change4_1"><path d="m227.83 274.1h-64.9-0.04 0.04 64.9m-64.95 0h-0.04 0.04m-0.04 0c-0.01-0.01-0.02-0.01-0.04-0.01 0.02 0 0.03 0 0.04 0.01m-0.04-0.01h-0.04 0.04m-0.05 0h-0.03 0.03m-0.04 0h-0.03 0.03m-0.04 0h-0.03 0.03m-0.04 0h-0.04 0.04m-0.05 0h-0.03 0.03m-0.03 0h-0.04 0.04m-0.05 0h-0.03 0.03m-0.04 0h-0.03 0.03m-0.05 0h-0.02 0.02m-0.03 0h-0.04 0.04m-0.05 0h-0.02 0.02m-0.04 0h-0.03 0.03m-0.04 0h-0.02 0.02m-0.04 0c-0.01 0-0.02-0.01-0.03-0.01 0.01 0 0.02 0.01 0.03 0.01m-0.05-0.01h-0.02 0.02m-0.04 0h-0.02 0.02m-0.04 0h-0.02 0.02m-0.05 0h-0.01 0.01m-0.04-0.01h-0.01 0.01m-0.05 0h-0.01 0.01m-0.03 0m127.69-43.98v-6.62 6.62m0-6.67v-0.01 0.01m0-0.05v-0.01 0.01m0-0.05v-0.02 0.02m0-0.05v-0.02 0.02m-0.01-0.06v-0.01 0.01m0-0.05v-0.01 0.01m0-0.05v-0.01 0.01m0-0.05v-0.01 0.01m0-0.05v-0.01 0.01m0-0.05" fill="#e662a6"/></g>
  <g id="change1_2"><path d="m270.61 222.99c0 17.71-5.15 24.46-15.91 24.46h-82.83c-10.77 0-15.92-2.08-15.92-24.46h114.66" fill="#fbd3e2"/></g>
  <g id="change2_2"><path d="m268.61 222.99c0 4.33-0.32 7.95-0.93 10.89-0.46 2.2-1.08 4.02-1.84 5.5-1.15 2.21-2.56 3.64-4.33 4.61-1.78 0.96-4.02 1.46-6.81 1.46h-82.83c-2.63 0-4.82-0.14-6.5-0.61-1.28-0.35-2.26-0.85-3.11-1.61-0.64-0.57-1.22-1.3-1.75-2.31-0.79-1.52-1.45-3.66-1.89-6.6s-0.67-6.67-0.67-11.33c0-1.1-0.89-2-2-2-1.1 0-2 0.9-2 2 0 5.67 0.32 10.11 1.01 13.65 0.52 2.65 1.25 4.81 2.25 6.58 0.75 1.32 1.67 2.43 2.73 3.3 1.6 1.3 3.48 2.04 5.47 2.44 2 0.4 4.14 0.49 6.46 0.49h82.83c2.89 0 5.53-0.46 7.85-1.51 1.74-0.8 3.29-1.93 4.59-3.39 1.94-2.2 3.3-5.09 4.18-8.64 0.88-3.57 1.29-7.83 1.29-12.92 0-1.1-0.9-2-2-2-1.11 0-2 0.9-2 2" fill="#ed6bae"/></g>
  <g id="change1_3"><path d="m270.61 222.99c0-17.71-5.15-24.45-15.91-24.45h-82.83c-10.77 0-15.92 2.07-15.92 24.45" fill="#fbd3e2"/></g>
  <g id="change2_3"><path d="m272.61 222.99c0-4.52-0.33-8.39-1.02-11.7-0.51-2.48-1.23-4.65-2.2-6.52-1.43-2.8-3.46-4.95-5.98-6.3-2.52-1.36-5.46-1.93-8.71-1.93h-82.83c-2.75 0-5.25 0.12-7.55 0.74-1.73 0.47-3.35 1.25-4.73 2.49-1.03 0.92-1.91 2.07-2.63 3.45-1.07 2.07-1.81 4.63-2.29 7.85-0.49 3.23-0.72 7.14-0.72 11.92 0 1.11 0.9 2 2 2 1.11 0 2-0.89 2-2 0-5.51 0.32-9.73 0.94-12.88 0.46-2.36 1.08-4.1 1.8-5.37 0.54-0.95 1.13-1.64 1.78-2.18 0.98-0.79 2.16-1.29 3.73-1.61 1.55-0.31 3.45-0.41 5.67-0.41h82.83c2.48 0 4.53 0.39 6.19 1.15 1.26 0.57 2.32 1.35 3.25 2.4 1.4 1.57 2.52 3.82 3.3 6.95 0.77 3.11 1.17 7.08 1.17 11.95 0 1.11 0.89 2 2 2 1.1 0 2-0.89 2-2" fill="#ed6bae"/></g>
  <g id="change1_4"><path d="m289.56 222.56c-5 0-9.07-4.07-9.07-9.07s4.07-9.06 9.07-9.06 9.07 4.06 9.07 9.06-4.07 9.07-9.07 9.07" fill="#fbd3e2"/></g>
  <g id="change2_4"><path d="m289.56 202.43c-6.1 0-11.07 4.96-11.07 11.06s4.97 11.07 11.07 11.07 11.07-4.97 11.07-11.07-4.97-11.06-11.07-11.06zm0 4c3.9 0 7.07 3.16 7.07 7.06s-3.17 7.07-7.07 7.07-7.07-3.17-7.07-7.07 3.17-7.06 7.07-7.06" fill="#ed6bae"/></g>
  <g id="change1_5"><path d="m165.85 176.07c-5 0-9.06-4.07-9.06-9.07s4.06-9.07 9.06-9.07 9.07 4.07 9.07 9.07-4.07 9.07-9.07 9.07" fill="#fbd3e2"/></g>
  <g id="change2_5"><path d="m165.85 155.93c-6.1 0-11.06 4.97-11.06 11.07 0 6.11 4.96 11.07 11.06 11.07s11.07-4.96 11.07-11.07c0-6.1-4.97-11.07-11.07-11.07zm0 4c3.9 0 7.07 3.17 7.07 7.07s-3.17 7.07-7.07 7.07-7.06-3.17-7.06-7.07 3.16-7.07 7.06-7.07" fill="#ed6bae"/></g>
  <g id="change1_6"><path d="m244.33 231.61c-3.6 0-6.53-2.93-6.53-6.53s2.93-6.52 6.53-6.52 6.53 2.92 6.53 6.52-2.93 6.53-6.53 6.53" fill="#fbd3e2"/></g>
  <g id="change2_6"><path d="m244.33 216.56c-4.7 0-8.53 3.82-8.53 8.52s3.83 8.53 8.53 8.53 8.53-3.83 8.53-8.53-3.83-8.52-8.53-8.52zm0 4c2.5 0 4.53 2.02 4.53 4.52s-2.03 4.53-4.53 4.53-4.53-2.03-4.53-4.53 2.03-4.52 4.53-4.52" fill="#ed6bae"/></g>
  <g id="change1_7"><path d="m189.56 184.07c-3.6 0-6.52-2.93-6.52-6.53 0-3.59 2.92-6.52 6.52-6.52s6.53 2.93 6.53 6.52c0 3.6-2.93 6.53-6.53 6.53" fill="#fbd3e2"/></g>
  <g id="change2_7"><path d="m189.56 169.02c-4.7 0-8.52 3.82-8.52 8.52s3.82 8.53 8.52 8.53 8.53-3.83 8.53-8.53-3.83-8.52-8.53-8.52zm0 4c2.5 0 4.53 2.02 4.53 4.52s-2.03 4.53-4.53 4.53-4.52-2.03-4.52-4.53 2.02-4.52 4.52-4.52" fill="#ed6bae"/></g>
  <g id="change1_8"><path d="m247.27 282.91c-11.52 0-20.89-9.37-20.89-20.89s9.37-20.9 20.89-20.9c0.33 0 0.67 0.02 1.02 0.04 3.45-9.7 12.72-16.33 23.11-16.33 10.37 0 19.65 6.63 23.11 16.3 11.26 0.3 20.33 9.55 20.33 20.89 0 10.39-7.77 19.29-18.07 20.68l-0.13 0.02h-0.13c-1.97 0.01-48.41 0.19-49.24 0.19" fill="#fbd3e2"/></g>
  <g id="change2_8"><path d="m271.4 222.83c-10.74 0-20.38 6.56-24.47 16.3-12.47 0.18-22.55 10.38-22.55 22.89 0 12.62 10.27 22.89 22.89 22.89 0.83 0 47.27-0.18 49.25-0.19h0.26l0.26-0.04c11.29-1.52 19.8-11.27 19.8-22.66 0-11.97-9.22-21.81-20.93-22.81-4.07-9.78-13.75-16.38-24.51-16.38m0 4c10.3 0 18.96 6.91 21.66 16.34 0.3-0.01 0.59-0.05 0.89-0.05 10.44 0 18.89 8.47 18.89 18.9 0 9.57-7.11 17.45-16.34 18.7 0 0-48.4 0.19-49.23 0.19-10.43 0-18.89-8.46-18.89-18.89s8.46-18.9 18.89-18.9c0.83 0 1.64 0.08 2.44 0.18 2.65-9.5 11.35-16.47 21.69-16.47" fill="#ed6bae"/></g>
  <g id="change5_1"><path d="m234.65 276.08c-3.76-3.38-6.16-8.24-6.27-13.67v-0.03-0.01-0.02-0.01-0.02-0.02-0.01-0.02-0.02-0.01-0.02-0.01-0.02-0.01-0.02-0.02-0.02-0.01-0.02-0.01-0.02-0.01-0.03c0-10.43 8.46-18.9 18.89-18.9 0.83 0 1.64 0.08 2.44 0.18 2.65-9.5 11.35-16.47 21.69-16.47h0.04 0.01 0.03 0.01 0.03 0.01 0.04 0.08 0.01c7.15 0.08 13.48 3.5 17.55 8.76-4.01-3.71-9.37-5.98-15.28-5.98-10.34 0-19.03 6.97-21.69 16.46-0.8-0.1-1.61-0.17-2.44-0.17-10.43 0-18.89 8.46-18.89 18.89 0 4.23 1.39 8.14 3.74 11.29" fill="#fefafc"/></g>
  <g id="change6_1"><path d="m228.38 262.41m0-0.03v-0.01 0.01m0-0.03v-0.01 0.01m0-0.03v-0.02 0.02m0-0.03v-0.02 0.02m0-0.04v-0.01 0.01m0-0.03v-0.01 0.01m0-0.03v-0.01 0.01m0-0.03v-0.02 0.02m0-0.04v-0.01 0.01m0-0.03v-0.01 0.01m0-0.03v-0.01 0.01m0-0.04m43.28-35.19h-0.01 0.01m-0.09 0m-0.04 0h-0.01 0.01m-0.04 0h-0.01 0.01m-0.04 0h-0.01 0.01" fill="#fceff6"/></g>
  <g id="change1_9"><path d="m307.27 153.56c-1.77-1.86-3.47-6.43-5.13-10.04-1.66 3.61-3.36 8.18-5.13 10.04-2.08 2.17-6.25 4.42-7.8 5.07 1.55 0.49 6.06 2.85 7.8 4.69 2.06 2.17 3.92 6.82 5.13 10.43 1.22-3.61 3.07-8.26 5.13-10.43 1.75-1.84 6.25-4.2 7.8-4.69-1.55-0.65-5.72-2.9-7.8-5.07" fill="#fbd3e2"/></g>
  <g id="change2_9"><path d="m307.27 153.56l1.45-1.38c-0.27-0.29-0.65-0.8-1.04-1.47-0.58-1-1.2-2.32-1.82-3.73-0.63-1.41-1.26-2.9-1.9-4.3-0.33-0.71-1.03-1.16-1.82-1.16-0.78 0-1.49 0.45-1.82 1.16-0.85 1.86-1.69 3.91-2.52 5.67-0.41 0.88-0.82 1.69-1.2 2.36-0.39 0.67-0.76 1.18-1.04 1.47-0.81 0.86-2.28 1.92-3.69 2.78-0.71 0.43-1.41 0.82-2.01 1.14-0.6 0.31-1.12 0.56-1.43 0.69-0.77 0.32-1.26 1.1-1.22 1.93 0.04 0.84 0.59 1.57 1.4 1.82 0.22 0.07 0.75 0.28 1.36 0.58 0.93 0.44 2.1 1.07 3.15 1.73 1.05 0.65 2 1.38 2.44 1.85 0.76 0.78 1.7 2.35 2.52 4.14 0.83 1.78 1.57 3.79 2.17 5.54 0.27 0.82 1.04 1.37 1.89 1.37 0.86 0 1.63-0.55 1.9-1.37 0.58-1.75 1.34-3.76 2.16-5.54 0.82-1.79 1.76-3.36 2.53-4.14 0.28-0.31 0.81-0.75 1.43-1.18 0.94-0.66 2.11-1.36 3.15-1.9 0.53-0.28 1.02-0.52 1.44-0.71 0.41-0.19 0.76-0.32 0.93-0.37 0.8-0.25 1.35-0.98 1.39-1.82 0.04-0.83-0.45-1.61-1.22-1.93-0.31-0.13-0.83-0.38-1.43-0.69-0.9-0.48-2.02-1.12-3.06-1.82-1.05-0.69-2.03-1.46-2.64-2.1l-2.89 2.76c1.26 1.31 2.91 2.45 4.49 3.43 0.8 0.48 1.56 0.91 2.24 1.27s1.27 0.64 1.73 0.83l0.78-1.84-0.6-1.91c-0.55 0.18-1.16 0.44-1.89 0.79-1.07 0.51-2.34 1.2-3.55 1.95-1.21 0.77-2.33 1.57-3.21 2.49-1.3 1.38-2.32 3.22-3.25 5.2-0.91 1.99-1.7 4.11-2.32 5.96l1.89 0.64 1.9-0.64c-0.63-1.85-1.42-3.97-2.33-5.96-0.93-1.98-1.95-3.82-3.25-5.2-0.58-0.62-1.28-1.16-2.03-1.7-1.14-0.8-2.43-1.56-3.6-2.18-0.59-0.3-1.15-0.58-1.65-0.8-0.51-0.23-0.95-0.41-1.37-0.55l-0.6 1.91 0.78 1.84c0.46-0.19 1.05-0.47 1.73-0.83 1.02-0.53 2.23-1.24 3.43-2.03 1.19-0.8 2.36-1.68 3.3-2.67 0.62-0.64 1.12-1.39 1.6-2.22 0.72-1.24 1.39-2.66 2.03-4.11 0.65-1.46 1.28-2.95 1.88-4.26l-1.82-0.83-1.82 0.83c0.81 1.76 1.65 3.81 2.53 5.69 0.44 0.95 0.9 1.86 1.38 2.68 0.48 0.83 0.98 1.58 1.6 2.22l1.44-1.38" fill="#ed6bae"/></g>
  <g id="change1_10"><path d="m321.07 183.47c-1.03-1.08-2.02-3.75-2.99-5.86-0.97 2.11-1.96 4.78-3 5.86-1.2 1.26-3.64 2.58-4.54 2.96 0.9 0.28 3.53 1.66 4.54 2.73 1.21 1.27 2.29 3.98 3 6.09 0.71-2.11 1.79-4.82 2.99-6.09 1.02-1.07 3.65-2.45 4.55-2.73-0.9-0.38-3.33-1.7-4.55-2.96" fill="#fbd3e2"/></g>
  <g id="change2_10"><path d="m321.07 183.47l1.45-1.38c-0.09-0.09-0.29-0.35-0.49-0.7-0.31-0.53-0.67-1.28-1.03-2.09-0.36-0.82-0.72-1.69-1.11-2.52-0.32-0.72-1.03-1.17-1.82-1.17-0.78 0-1.48 0.46-1.81 1.17-0.51 1.11-1 2.29-1.47 3.3-0.23 0.5-0.46 0.95-0.67 1.31-0.2 0.35-0.39 0.61-0.48 0.7-0.39 0.41-1.2 1.01-1.99 1.48-0.4 0.25-0.79 0.47-1.12 0.64-0.34 0.18-0.63 0.31-0.77 0.38-0.78 0.32-1.26 1.09-1.22 1.93 0.03 0.84 0.59 1.56 1.39 1.81 0.06 0.02 0.36 0.14 0.69 0.3 0.51 0.25 1.17 0.6 1.75 0.97 0.58 0.35 1.1 0.76 1.26 0.94 0.33 0.34 0.87 1.2 1.32 2.19 0.46 1 0.89 2.15 1.23 3.16 0.27 0.81 1.04 1.36 1.89 1.36 0.86 0 1.63-0.55 1.9-1.36 0.34-1.01 0.77-2.16 1.23-3.16 0.46-0.99 0.99-1.85 1.32-2.19 0.11-0.11 0.38-0.34 0.71-0.58 0.51-0.36 1.17-0.75 1.75-1.05 0.29-0.16 0.57-0.29 0.8-0.39 0.22-0.1 0.4-0.17 0.45-0.18 0.8-0.26 1.35-0.98 1.39-1.82s-0.45-1.61-1.22-1.93c-0.15-0.07-0.44-0.2-0.77-0.38-0.51-0.26-1.14-0.62-1.72-1.01-0.57-0.38-1.11-0.81-1.39-1.11l-2.9 2.77c0.83 0.85 1.84 1.53 2.8 2.13 0.48 0.29 0.94 0.55 1.35 0.76 0.41 0.22 0.77 0.39 1.07 0.52l0.78-1.84-0.6-1.91c-0.39 0.13-0.77 0.29-1.21 0.5-0.66 0.32-1.42 0.73-2.16 1.19-0.74 0.47-1.43 0.95-2.03 1.58-0.87 0.93-1.48 2.06-2.05 3.26-0.55 1.2-1.02 2.46-1.39 3.56l1.9 0.64 1.89-0.64c-0.37-1.1-0.83-2.36-1.39-3.56s-1.18-2.33-2.05-3.26h0.01c-0.41-0.42-0.84-0.76-1.32-1.1-0.7-0.49-1.47-0.95-2.19-1.32-0.35-0.19-0.69-0.36-1.01-0.5-0.31-0.14-0.59-0.25-0.88-0.35l-0.6 1.91 0.77 1.84c0.3-0.13 0.66-0.3 1.07-0.52 0.62-0.32 1.35-0.74 2.08-1.22 0.73-0.49 1.45-1.03 2.07-1.68 0.43-0.45 0.75-0.93 1.05-1.45 0.45-0.77 0.84-1.62 1.22-2.48 0.39-0.86 0.75-1.72 1.09-2.47l-1.81-0.84-1.82 0.84c0.46 1 0.95 2.19 1.47 3.32 0.27 0.57 0.54 1.12 0.84 1.63 0.31 0.52 0.63 1 1.05 1.45v0.01l1.45-1.39" fill="#ed6bae"/></g>
  <g id="change1_11"><path d="m107.38 261.5c1.77-1.86 3.47-6.43 5.13-10.05 1.66 3.62 3.36 8.19 5.13 10.05 2.08 2.17 6.25 4.41 7.8 5.07-1.55 0.49-6.05 2.85-7.8 4.69-2.05 2.17-3.92 6.81-5.13 10.43-1.21-3.62-3.07-8.26-5.13-10.43-1.74-1.84-6.25-4.2-7.802-4.69 1.552-0.66 5.722-2.9 7.802-5.07" fill="#fbd3e2"/></g>
  <g id="change2_11"><path d="m107.38 261.5l1.44 1.38c0.62-0.65 1.12-1.39 1.6-2.22 0.72-1.23 1.38-2.66 2.03-4.12 0.65-1.45 1.27-2.93 1.88-4.25l-1.82-0.84-1.82 0.84c0.81 1.75 1.65 3.8 2.53 5.69 0.44 0.95 0.9 1.86 1.38 2.68 0.48 0.83 0.99 1.57 1.6 2.22 1.26 1.31 2.91 2.46 4.5 3.43 0.79 0.48 1.55 0.91 2.23 1.27 0.68 0.35 1.27 0.63 1.73 0.83l0.78-1.84-0.6-1.91c-0.55 0.18-1.16 0.44-1.89 0.79-1.07 0.51-2.34 1.19-3.55 1.95-1.2 0.77-2.34 1.57-3.21 2.48-1.3 1.39-2.31 3.23-3.24 5.21s-1.71 4.11-2.34 5.96l1.9 0.64 1.9-0.64c-0.63-1.85-1.41-3.98-2.34-5.96s-1.95-3.82-3.24-5.21c-0.58-0.61-1.28-1.16-2.04-1.69-1.13-0.8-2.42-1.56-3.59-2.17-0.59-0.31-1.15-0.59-1.65-0.82-0.51-0.22-0.95-0.4-1.37-0.54l-0.602 1.91 0.782 1.84c0.46-0.2 1.05-0.48 1.73-0.83 1.02-0.54 2.23-1.24 3.43-2.03 1.19-0.8 2.36-1.69 3.3-2.67l-1.44-1.38-1.45-1.38c-0.81 0.86-2.28 1.92-3.69 2.77-0.71 0.44-1.41 0.83-2.01 1.15-0.601 0.31-1.121 0.56-1.429 0.69-0.774 0.32-1.258 1.09-1.219 1.93s0.594 1.56 1.395 1.82c0.222 0.07 0.753 0.28 1.363 0.57 0.93 0.45 2.1 1.08 3.15 1.74s2 1.38 2.44 1.85c0.76 0.79 1.7 2.36 2.52 4.14 0.83 1.78 1.57 3.79 2.16 5.54 0.28 0.82 1.04 1.37 1.9 1.37s1.62-0.55 1.9-1.37c0.59-1.75 1.34-3.76 2.16-5.54s1.76-3.35 2.52-4.14c0.29-0.31 0.82-0.75 1.44-1.18 0.94-0.67 2.11-1.35 3.15-1.91 0.53-0.27 1.02-0.51 1.44-0.7 0.41-0.19 0.76-0.32 0.93-0.37 0.8-0.26 1.35-0.98 1.39-1.82s-0.45-1.61-1.22-1.93c-0.31-0.13-0.83-0.38-1.43-0.69-0.9-0.48-2.02-1.12-3.06-1.82-1.05-0.69-2.03-1.46-2.64-2.1-0.27-0.28-0.65-0.81-1.04-1.47-0.58-1-1.2-2.32-1.83-3.73-0.62-1.41-1.25-2.9-1.89-4.3-0.33-0.71-1.04-1.17-1.82-1.17s-1.49 0.46-1.82 1.17c-0.85 1.86-1.69 3.9-2.51 5.67-0.42 0.88-0.82 1.69-1.22 2.36-0.38 0.66-0.76 1.19-1.03 1.46l1.45 1.39" fill="#ed6bae"/></g>
 </g>
</svg>